<?xml version="1.0" encoding="UTF-8"?>
<!DOCTYPE svg PUBLIC "-//W3C//DTD SVG 1.1//EN" "http://www.w3.org/Graphics/SVG/1.1/DTD/svg11.dtd">
<!-- Creator: CorelDRAW Standard 2021 (64-Bit) -->
<svg xmlns="http://www.w3.org/2000/svg" xml:space="preserve" width="294px" height="269px" version="1.1" style="shape-rendering:geometricPrecision; text-rendering:geometricPrecision; image-rendering:optimizeQuality; fill-rule:evenodd; clip-rule:evenodd"
viewBox="0 0 59.44 54.307"
 xmlns:xlink="http://www.w3.org/1999/xlink"
 xmlns:xodm="http://www.corel.com/coreldraw/odm/2003">
 <defs>
  <style type="text/css">
   <![CDATA[
    .str0 {stroke:#334C29;stroke-width:0.842;stroke-miterlimit:22.9256}
    .fil0 {fill:#E7D68F}
    .fil2 {fill:#334C29}
    .fil3 {fill:#A38C43}
    .fil1 {fill:#F7F8EE}
   ]]>
  </style>
 </defs>
 <g id="Layer_x0020_1">
  <metadata id="CorelCorpID_0Corel-Layer"/>
  <g id="_2084348855296">
   <rect class="fil0" width="59.44" height="54.307" rx="4.188" ry="4.188"/>
   <path class="fil1" d="M19.369 41.151c0.025,-0.069 0.053,-0.239 0.093,-0.201l2.122 -2.049c0.802,-0.91 0.409,-0.001 0.458,-1.006 -1.388,-0.126 -2.427,0.176 -3.819,-0.162 -0.545,-1.463 0.494,-5.298 1.001,-6.872 0.377,-1.168 0.501,-1.926 0.85,-3.197 0.508,-1.853 1.748,-3.225 3.715,-1.904l11.232 10.325c1.507,1.326 2.636,2.968 4.988,2.402 2.78,-0.668 2.667,-2.204 3.163,-4.365 0.426,-1.856 1.004,-3.458 1.421,-5.4 0.428,-2.001 2.106,-10.059 2.775,-10.962 1.782,-0.282 3.222,1.699 4.444,1.397l-2.283 -5.139c-2.81,-4.962 -1.656,-6.716 -5.331,-3.541 -1.236,1.068 -6.72,4.78 -6.77,6.146 1.109,0.062 2.726,-0.155 4.013,-0.095l0.208 1.503c-0.123,0.717 -0.737,3.198 -0.795,3.55 -0.222,1.358 -0.635,2.465 -0.93,3.626 -0.231,0.913 -0.72,6.531 -4.506,3.428 -3.299,-2.703 -9.637,-9.074 -12.989,-12.125 -0.955,-0.869 -2.301,-0.997 -3.797,-0.408 -1.979,0.779 -2.174,4.232 -2.786,6.352 -0.558,1.93 -2.874,12.89 -3.416,14.018 -2.111,0.668 -3.069,-1.279 -4.735,-1.138 0.366,1.417 4.061,8.689 4.983,10.331 2.034,-0.297 5.378,-4.406 6.691,-4.514z"/>
   <path class="fil2 str0" d="M39.721 18.426c1.717,0.03 2.028,1.344 1.683,-1.891 -1.287,-0.06 -2.905,0.156 -4.013,0.095 0.05,-1.366 5.533,-5.078 6.77,-6.146 3.675,-3.175 2.52,-1.421 5.33,3.54l2.284 5.139c-1.222,0.303 -2.663,-1.678 -4.444,-1.396 -0.669,0.903 -2.347,8.961 -2.776,10.961 -0.416,1.943 -0.994,3.544 -1.42,5.401 -0.496,2.16 -0.383,3.697 -3.164,4.365 -2.351,0.565 -3.481,-1.076 -4.987,-2.403l-11.232 -10.324c-1.967,-1.321 -3.207,0.051 -3.715,1.904 -0.349,1.271 -0.474,2.029 -0.85,3.197 -0.507,1.574 -1.547,5.409 -1.002,6.872 1.393,0.338 2.432,0.036 3.819,0.161 -0.048,1.006 0.344,0.097 -0.457,1.007l-2.122 2.049c-0.04,-0.038 -0.132,0.068 -0.157,0.137 1.007,-0.847 1.29,-0.336 2.608,-0.61 -0.571,0.529 0.039,-0.019 -0.154,0.642 1.364,-0.698 3.068,-2.051 2.555,-3.762 -0.636,-2.124 -2.73,-1.071 -4.257,-1.352 -0.086,-0.694 1.698,-8.132 2.04,-8.835 1.324,0.174 10.802,9.587 12.607,11.174 1.475,1.297 2.81,2.387 5.096,2.085 5.293,-0.7 4.93,-5.363 6.026,-9.275 0.572,-2.041 2.162,-9.938 2.692,-10.952 1.489,-0.075 2.501,1.566 4.279,0.527 2.261,-1.322 -0.562,-5.265 -1.128,-6.348 -4.473,-8.56 -2.892,-9.961 -10.385,-4.027 -0.972,0.77 -5.953,4.879 -6.109,5.454 0.213,3.447 1.932,2.562 4.501,2.586l0.082 0.025zm-17.999 22.7c0.193,-0.661 -0.417,-0.113 0.154,-0.642 -1.318,0.274 -1.199,-0.201 -2.608,0.61 -1.205,0.527 -4.593,4.281 -6.628,4.577 -0.921,-1.641 -4.616,-8.914 -4.982,-10.33 1.666,-0.142 2.624,1.806 4.735,1.138 0.542,-1.128 2.858,-12.089 3.415,-14.018 0.613,-2.12 0.808,-5.573 2.787,-6.352 1.496,-0.589 2.841,-0.461 3.797,0.408 3.352,3.051 9.69,9.422 12.989,12.125 3.786,3.103 4.275,-2.515 4.506,-3.428 0.295,-1.161 1.194,-4.27 1.416,-5.628 0.979,-3.513 -1.844,-1.553 -1.399,-0.859 -1.186,2.272 -1.442,7.564 -2.617,8.787 -0.743,-0.088 -0.722,-0.225 -1.35,-0.866l-7.112 -6.637c-2.533,-2.132 -5.671,-6.243 -9.093,-6.062 -5.028,0.267 -4.989,5.948 -5.946,9.327 -0.507,1.792 -2.292,10.235 -2.724,11.013 -1.572,0.026 -2.286,-1.369 -3.751,-1.006 -3.366,0.834 -0.118,5.469 0.729,7.097 3.065,5.892 2.91,9.493 7.931,5.472 1.924,-1.541 4.06,-3.241 5.751,-4.726z"/>
   <path class="fil3" d="M18.349 34.056c-0.293,1.434 -0.456,2.9 -0.164,3.684 1.393,0.338 2.432,0.036 3.819,0.161 -0.048,1.006 0.344,0.097 -0.457,1.007l-2.122 2.049c-0.04,-0.038 -0.068,0.131 -0.094,0.201 1.409,-0.812 1.227,-0.4 2.545,-0.674 -0.571,0.529 0.039,-0.019 -0.154,0.642 1.364,-0.698 3.068,-2.051 2.555,-3.762 -0.636,-2.124 -2.73,-1.071 -4.257,-1.352 -0.022,-0.18 0.08,-0.808 0.25,-1.654l-1.921 -0.302zm-5.071 -0.796l-1.805 -0.283c-0.178,0.675 -0.323,1.154 -0.411,1.312 -1.572,0.026 -2.286,-1.369 -3.751,-1.006 -3.366,0.834 -0.118,5.469 0.729,7.097 3.065,5.892 2.91,9.493 7.931,5.472 1.924,-1.541 4.06,-3.241 5.751,-4.726 0.193,-0.661 -0.417,-0.113 0.154,-0.642 -1.318,0.274 -1.136,-0.138 -2.545,0.674 -1.312,0.108 -4.656,4.217 -6.691,4.513 -0.921,-1.641 -4.616,-8.914 -4.982,-10.33 1.666,-0.142 2.624,1.806 4.735,1.138 0.165,-0.342 0.493,-1.592 0.885,-3.219z"/>
   <path class="fil3" d="M41.409 16.582c-1.287,-0.06 -2.91,0.109 -4.018,0.048 0.05,-1.366 5.533,-5.078 6.77,-6.146 3.675,-3.175 2.52,-1.421 5.33,3.54l2.284 5.139c-1.222,0.303 -2.663,-1.678 -4.444,-1.396 -0.253,0.34 -0.648,1.697 -1.066,3.362l1.821 0.286c0.16,-0.587 0.296,-1.017 0.395,-1.206 1.489,-0.075 2.501,1.566 4.279,0.527 2.261,-1.322 -0.562,-5.265 -1.128,-6.348 -4.473,-8.56 -2.892,-9.961 -10.385,-4.027 -0.972,0.77 -5.953,4.879 -6.109,5.454 0.213,3.447 1.912,2.547 4.481,2.571l0.19 0.21c-0.336,1.13 -0.437,1.245 -0.358,1.257 0.722,0.118 1.78,0.328 1.78,0.328 0.435,-1.231 0.407,-3.105 0.178,-3.599z"/>
  </g>
 </g>
</svg>
