<?xml version="1.0" encoding="UTF-8"?>
<!DOCTYPE svg PUBLIC "-//W3C//DTD SVG 1.1//EN" "http://www.w3.org/Graphics/SVG/1.1/DTD/svg11.dtd">
<!-- Creator: CorelDRAW Standard 2021 (64-Bit) -->
<svg xmlns="http://www.w3.org/2000/svg" xml:space="preserve" width="1096px" height="178px" version="1.1" style="shape-rendering:geometricPrecision; text-rendering:geometricPrecision; image-rendering:optimizeQuality; fill-rule:evenodd; clip-rule:evenodd"
viewBox="0 0 1631.282 264.807"
 xmlns:xlink="http://www.w3.org/1999/xlink"
 xmlns:xodm="http://www.corel.com/coreldraw/odm/2003">
 <defs>
  <style type="text/css">
   <![CDATA[
    .str0 {stroke:#A38C43;stroke-width:9.303;stroke-miterlimit:22.9256}
    .fil0 {fill:#334C29;fill-rule:nonzero}
   ]]>
  </style>
 </defs>
 <g id="Layer_x0020_1">
  <metadata id="CorelCorpID_0Corel-Layer"/>
  <path class="fil0 str0" d="M5.116 255.272l3.631 -38.565 7.137 -130.655 2.003 -52.713 0 -28.61c18.97,0.251 35.748,0.375 50.271,0.375 10.393,0 25.042,-0.124 43.887,-0.375l78.756 142.551 10.893 20.91c1.253,-20.535 2.504,-49.395 3.819,-86.52 1.314,-37.062 1.941,-62.73 1.941,-76.941 15.087,0.251 27.17,0.375 36.248,0.375 4.132,0 16.152,-0.124 35.997,-0.375l-4.319 54.717 -8.139 151.941 -1.064 43.885c-15.964,-0.25 -30.802,-0.375 -44.7,-0.375 -11.519,0 -27.483,0.125 -47.83,0.375 -6.322,-12.02 -11.018,-20.722 -14.086,-26.105l-30.801 -52.338c-10.142,-17.153 -19.533,-33.557 -28.11,-49.207 -5.634,-9.954 -11.394,-20.848 -17.403,-32.743l-3.756 87.083 -1.754 73.31c-15.213,-0.25 -26.795,-0.375 -34.746,-0.375 -6.761,0 -19.344,0.125 -37.875,0.375zm869.639 0l3.631 -38.565 7.137 -130.655 2.003 -52.713 0 -28.61c18.97,0.251 35.748,0.375 50.272,0.375 10.392,0 25.042,-0.124 43.886,-0.375l78.757 142.551 10.892 20.91c1.253,-20.535 2.505,-49.395 3.82,-86.52 1.314,-37.062 1.94,-62.73 1.94,-76.941 15.088,0.251 27.171,0.375 36.248,0.375 4.132,0 16.152,-0.124 35.997,-0.375l-4.319 54.717 -8.139 151.941 -1.064 43.885c-15.964,-0.25 -30.802,-0.375 -44.7,-0.375 -11.519,0 -27.483,0.125 -47.829,0.375 -6.323,-12.02 -11.019,-20.722 -14.086,-26.105l-30.802 -52.338c-10.142,-17.153 -19.532,-33.557 -28.11,-49.207 -5.634,-9.954 -11.393,-20.848 -17.403,-32.743l-3.756 87.083 -1.754 73.31c-15.213,-0.25 -26.795,-0.375 -34.745,-0.375 -6.762,0 -19.345,0.125 -37.876,0.375zm-381.762 -55.217c-1.565,7.324 -4.57,24.979 -9.015,52.963 -14.211,2.88 -26.169,4.759 -35.872,5.697 -9.704,0.94 -19.47,1.44 -29.424,1.44 -14.587,0 -28.048,-1.001 -40.255,-3.004 -12.27,-2.004 -22.851,-5.635 -31.74,-10.768 -8.891,-5.071 -16.34,-11.457 -22.35,-19.095 -6.011,-7.638 -10.581,-16.715 -13.711,-27.233 -3.13,-10.518 -4.695,-21.348 -4.695,-32.429 0,-15.651 3.13,-30.989 9.391,-45.952 6.198,-14.962 14.273,-26.669 24.102,-35.058 9.892,-8.452 21.223,-14.462 34.057,-17.968 12.834,-3.568 26.044,-5.322 39.504,-5.322 13.898,0 27.233,1.628 39.879,4.884 12.709,3.193 23.414,8.89 32.241,16.904 8.827,8.075 15.087,17.153 18.844,27.295 3.694,10.142 5.571,21.098 5.571,32.804 0,7.012 -0.75,14.712 -2.253,23.29l-129.027 0.187c-0.126,1.941 -0.189,3.694 -0.189,5.321 0,13.148 4.759,22.851 14.211,29.111 9.454,6.198 20.974,9.328 34.621,9.328 8.076,0 17.341,-0.938 27.734,-2.817 10.33,-1.877 23.163,-5.071 38.376,-9.578zm-113.314 -59.349l60.727 0c0.125,-2.066 0.187,-3.819 0.187,-5.321 0,-6.324 -1.127,-11.77 -3.381,-16.277 -2.316,-4.508 -5.571,-7.764 -9.766,-9.83 -4.257,-2.065 -9.015,-3.13 -14.274,-3.13 -3.693,0 -7.199,0.564 -10.642,1.753 -3.444,1.127 -6.574,2.88 -9.328,5.133 -2.755,2.254 -5.071,4.821 -6.887,7.764 -1.815,2.88 -3.193,5.759 -4.069,8.452 -0.814,2.754 -1.69,6.573 -2.567,11.456zm133.911 114.566l41.82 -55.593 31.052 -42.633 -57.471 -89.212c17.842,0.251 33.18,0.376 46.014,0.376 16.152,0 29.424,-0.125 39.816,-0.376l19.346 42.07c1.189,2.567 3.004,6.511 5.258,11.895 9.454,-16.152 20.597,-34.119 33.431,-53.965 10.893,0.251 23.915,0.376 39.065,0.376 14.086,0 27.483,-0.125 40.192,-0.376l-29.362 38.565c-5.759,7.575 -18.03,24.228 -36.873,49.896 11.269,19.469 31.866,52.462 61.727,98.977 -13.835,-0.25 -27.42,-0.375 -40.88,-0.375 -16.403,0 -31.052,0.125 -44.011,0.375 -8.014,-17.154 -14.086,-29.8 -18.343,-38.001 -4.257,-8.201 -7.826,-15.713 -10.768,-22.6l-5.885 10.142c-1.816,3.005 -4.633,7.575 -8.451,13.585l-23.29 36.874c-13.209,-0.25 -26.043,-0.375 -38.564,-0.375 -14.399,0 -29.048,0.125 -43.823,0.375zm242.029 -72.12c1.44,-17.717 2.379,-34.62 2.754,-50.71 17.342,0.501 33.682,0.752 49.02,0.752 15.651,0 32.053,-0.251 49.269,-0.752 -1.439,15.714 -2.378,32.618 -2.754,50.71 -17.341,-0.25 -33.744,-0.376 -49.207,-0.376 -15.526,0 -31.865,0.126 -49.082,0.376zm607.014 16.903c-1.566,7.324 -4.57,24.979 -9.016,52.963 -14.21,2.88 -26.169,4.759 -35.872,5.697 -9.703,0.94 -19.47,1.44 -29.424,1.44 -14.587,0 -28.047,-1.001 -40.255,-3.004 -12.27,-2.004 -22.851,-5.635 -31.74,-10.768 -8.89,-5.071 -16.34,-11.457 -22.35,-19.095 -6.011,-7.638 -10.58,-16.715 -13.711,-27.233 -3.13,-10.518 -4.694,-21.348 -4.694,-32.429 0,-15.651 3.13,-30.989 9.39,-45.952 6.198,-14.962 14.273,-26.669 24.102,-35.058 9.892,-8.452 21.223,-14.462 34.058,-17.968 12.833,-3.568 26.043,-5.322 39.503,-5.322 13.898,0 27.233,1.628 39.879,4.884 12.709,3.193 23.414,8.89 32.241,16.904 8.827,8.075 15.088,17.153 18.845,27.295 3.693,10.142 5.571,21.098 5.571,32.804 0,7.012 -0.751,14.712 -2.254,23.29l-129.027 0.187c-0.126,1.941 -0.188,3.694 -0.188,5.321 0,13.148 4.758,22.851 14.211,29.111 9.453,6.198 20.973,9.328 34.62,9.328 8.076,0 17.341,-0.938 27.734,-2.817 10.33,-1.877 23.164,-5.071 38.377,-9.578zm-113.314 -59.349l60.726 0c0.125,-2.066 0.187,-3.819 0.187,-5.321 0,-6.324 -1.127,-11.77 -3.38,-16.277 -2.317,-4.508 -5.572,-7.764 -9.766,-9.83 -4.257,-2.065 -9.015,-3.13 -14.275,-3.13 -3.693,0 -7.199,0.564 -10.642,1.753 -3.444,1.127 -6.574,2.88 -9.328,5.133 -2.755,2.254 -5.071,4.821 -6.887,7.764 -1.815,2.88 -3.192,5.759 -4.069,8.452 -0.814,2.754 -1.69,6.573 -2.566,11.456zm133.911 114.566l41.819 -55.593 31.052 -42.633 -57.471 -89.212c17.842,0.251 33.181,0.376 46.014,0.376 16.152,0 29.424,-0.125 39.817,-0.376l19.345 42.07c1.189,2.567 3.004,6.511 5.258,11.895 9.454,-16.152 20.597,-34.119 33.432,-53.965 10.892,0.251 23.914,0.376 39.064,0.376 14.087,0 27.484,-0.125 40.192,-0.376l-29.361 38.565c-5.76,7.575 -18.031,24.228 -36.874,49.896 11.269,19.469 31.866,52.462 61.728,98.977 -13.836,-0.25 -27.421,-0.375 -40.88,-0.375 -16.404,0 -31.052,0.125 -44.012,0.375 -8.013,-17.154 -14.086,-29.8 -18.343,-38.001 -4.257,-8.201 -7.826,-15.713 -10.768,-22.6l-5.885 10.142c-1.816,3.005 -4.633,7.575 -8.451,13.585l-23.29 36.874c-13.208,-0.25 -26.043,-0.375 -38.563,-0.375 -14.4,0 -29.049,0.125 -43.823,0.375z"/>
 </g>
</svg>
